<?xml version="1.0" encoding="utf-8"?>
<svg xmlns="http://www.w3.org/2000/svg" style="margin: auto; background: rgb(241, 242, 243); display: block; shape-rendering: auto;" width="281" height="108" preserveAspectRatio="xMidYMid">
<style type="text/css">
  text {
    text-anchor: middle; font-size: 52px; opacity: 0;
  }
</style>
<g style="transform-origin: 140.5px 54px; transform: scale(0.5);">
<g transform="translate(140.5,54)">
  <g transform="translate(0,0)"><g class="path" style="transform: scale(1); transform-origin: -228.02px -5.73492px; animation: 1.53846s linear -0.930769s infinite normal forwards running beat-cd35798a-13ad-4518-8568-b259d5373ef6;"><path d="M8.32-71.76L30.89-71.76L30.89-71.76Q40.87-71.76 46.70-67.24L46.70-67.24L46.70-67.24Q52.52-62.71 52.52-55.12L52.52-55.12L52.52-55.12Q52.52-42.95 42.54-38.17L42.54-38.17L42.54-38.17Q56.06-33.49 56.06-20.90L56.06-20.90L56.06-20.90Q56.06-11.44 47.94-5.15L47.94-5.15L47.94-5.15Q39.83 1.14 27.56 1.14L27.56 1.14L27.56 1.14Q21.11 1.14 8.32 0L8.32 0L9.57-25.27L8.32-71.76zM29.54-30.89L29.54-30.89L21.11-30.89L21.01-27.04L21.74-10.09L21.74-10.09Q27.77-9.57 30.99-9.57L30.99-9.57L30.99-9.57Q36.50-9.57 39.57-12.32L39.57-12.32L39.57-12.32Q42.64-15.08 42.64-20.38L42.64-20.38L42.64-20.38Q42.64-25.69 39.52-28.29L39.52-28.29L39.52-28.29Q36.40-30.89 29.54-30.89zM27.14-61.26L27.14-61.26L22.05-61.26L21.42-40.98L28.18-40.98L28.18-40.98Q33.49-40.98 36.30-43.84L36.30-43.84L36.30-43.84Q39.10-46.70 39.10-52.00L39.10-52.00L39.10-52.00Q39.10-61.26 27.14-61.26" fill="#009ef7" stroke="none" stroke-width="none" transform="translate(-260.2099914550781,29.575085169474278)" style="fill: rgb(0, 158, 247);"></path></g><g class="path" style="transform: scale(1); transform-origin: -186.94px 3.10509px; animation: 1.53846s linear -0.846154s infinite normal forwards running beat-cd35798a-13ad-4518-8568-b259d5373ef6;"><path d="M66.35-50.34L80.29-52.94L79.04-27.04L80.18-2.60L66.25 0L67.50-25.27L66.35-50.34" fill="#009ef7" stroke="none" stroke-width="none" transform="translate(-260.2099914550781,29.575085169474278)" style="fill: rgb(0, 158, 247);"></path></g><g class="path" style="transform: scale(1); transform-origin: -186.475px -39.0649px; animation: 1.53846s linear -0.761538s infinite normal forwards running beat-cd35798a-13ad-4518-8568-b259d5373ef6;"><path d="M65.62-68.17L65.62-68.17L65.62-68.17Q65.62-71.66 68.33-74.41L68.33-74.41L68.33-74.41Q71.03-77.17 74.57-77.17L74.57-77.17L74.57-77.17Q78.10-77.17 79.98-75.24L79.98-75.24L79.98-75.24Q81.85-73.32 81.85-69.47L81.85-69.47L81.85-69.47Q81.85-65.62 79.20-62.87L79.20-62.87L79.20-62.87Q76.54-60.11 73.06-60.11L73.06-60.11L73.06-60.11Q69.58-60.11 67.60-62.40L67.60-62.40L67.60-62.40Q65.62-64.69 65.62-68.17" fill="#009ef7" stroke="none" stroke-width="none" transform="translate(-260.2099914550781,29.575085169474278)" style="fill: rgb(0, 158, 247);"></path></g><g class="path" style="transform: scale(1); transform-origin: -146.64px 14.2351px; animation: 1.53846s linear -0.676923s infinite normal forwards running beat-cd35798a-13ad-4518-8568-b259d5373ef6;"><path d="M88.09 10.30L88.09 10.30L88.09 10.30Q88.09 1.14 105.14-4.06L105.14-4.06L105.14-4.06Q101.09-6.14 101.09-9.46L101.09-9.46L101.09-9.46Q101.09-10.82 102.13-12.17L102.13-12.17L102.13-12.17Q103.17-13.52 105.14-14.98L105.14-14.98L105.14-15.81L105.14-15.81Q97.66-15.81 93.24-19.97L93.24-19.97L93.24-19.97Q88.82-24.13 88.82-31.10L88.82-31.10L88.82-31.10Q88.82-40.14 96.20-46.85L96.20-46.85L96.20-46.85Q103.58-53.56 113.67-53.56L113.67-53.56L113.67-53.56Q116.27-53.56 121.26-52.52L121.26-52.52L121.26-52.52Q126.26-51.48 131.04-51.48L131.04-51.48L139.05-51.48L138.01-42.43L130.21-43.37L130.21-43.37Q131.25-40.35 131.25-36.50L131.25-36.50L131.25-36.50Q131.25-32.66 129.43-28.86L129.43-28.86L129.43-28.86Q127.61-25.06 125.06-22.78L125.06-22.78L125.06-22.78Q122.51-20.49 119.96-18.77L119.96-18.77L119.96-18.77Q117.42-17.06 115.60-15.76L115.60-15.76L115.60-15.76Q113.78-14.46 113.78-13.42L113.78-13.42L113.78-13.42Q113.78-11.44 117.94-9.98L117.94-9.98L117.94-9.98Q128.96-5.51 132.86-2.39L132.86-2.39L132.86-2.39Q136.76 0.73 136.76 5.30L136.76 5.30L136.76 5.30Q136.76 13.00 129.01 17.94L129.01 17.94L129.01 17.94Q121.26 22.88 110.55 22.88L110.55 22.88L110.55 22.88Q99.84 22.88 93.96 19.45L93.96 19.45L93.96 19.45Q88.09 16.02 88.09 10.30zM119.50-33.38L119.50-33.38L119.50-33.38Q119.50-38.48 117.21-40.87L117.21-40.87L117.21-40.87Q114.92-43.26 110.03-43.26L110.03-43.26L110.03-43.26Q100.57-43.26 100.57-33.96L100.57-33.96L100.57-33.96Q100.57-24.65 110.66-24.65L110.66-24.65L110.66-24.65Q119.50-24.65 119.50-33.38zM123.24 6.86L123.24 6.86L123.24 6.86Q123.24 4.99 121.26 3.38L121.26 3.38L121.26 3.38Q119.29 1.77 114.19-0.42L114.19-0.42L114.19-0.42Q106.60 1.66 103.74 3.43L103.74 3.43L103.74 3.43Q100.88 5.20 100.88 7.80L100.88 7.80L100.88 7.80Q100.88 10.40 103.74 12.01L103.74 12.01L103.74 12.01Q106.60 13.62 111.70 13.62L111.70 13.62L111.70 13.62Q116.79 13.62 120.02 11.75L120.02 11.75L120.02 11.75Q123.24 9.88 123.24 6.86" fill="#009ef7" stroke="none" stroke-width="none" transform="translate(-260.2099914550781,29.575085169474278)" style="fill: rgb(0, 158, 247);"></path></g><g class="path" style="transform: scale(1); transform-origin: -85.8px -6.56491px; animation: 1.53846s linear -0.592308s infinite normal forwards running beat-cd35798a-13ad-4518-8568-b259d5373ef6;"><path d="M187.20-69.68L201.97-72.28L200.51-27.04L201.76 0L187.20 0L188.45-25.27L188.24-30.78L160.26-30.78L160.16-27.04L161.41 0L146.85 0L148.10-25.27L146.85-69.68L161.62-72.28L160.58-41.81L187.93-41.81L187.20-69.68" fill="#009ef7" stroke="none" stroke-width="none" transform="translate(-260.2099914550781,29.575085169474278)" style="fill: rgb(0, 158, 247);"></path></g><g class="path" style="transform: scale(1); transform-origin: -26.885px 3.36508px; animation: 1.53846s linear -0.507692s infinite normal forwards running beat-cd35798a-13ad-4518-8568-b259d5373ef6;"><path d="M235.04-10.61L235.04-10.61L235.04-10.61Q238.06-10.61 241.38-12.17L241.38-12.17L241.38-12.17Q244.71-13.73 246.58-15.29L246.58-15.29L248.46-16.85L253.24-11.02L253.24-11.02Q252.20-9.26 250.02-6.97L250.02-6.97L250.02-6.97Q247.83-4.68 245.60-3.07L245.60-3.07L245.60-3.07Q243.36-1.46 239.67-0.16L239.67-0.16L239.67-0.16Q235.98 1.14 232.02 1.14L232.02 1.14L232.02 1.14Q223.60 1.14 218.30-5.25L218.30-5.25L218.30-5.25Q212.99-11.65 212.99-21.74L212.99-21.74L212.99-21.74Q212.99-34.42 220.38-43.99L220.38-43.99L220.38-43.99Q227.76-53.56 237.64-53.56L237.64-53.56L237.64-53.56Q245.23-53.56 249.44-49.30L249.44-49.30L249.44-49.30Q253.66-45.03 253.66-37.34L253.66-37.34L253.66-37.34Q253.66-32.76 252.10-26.94L252.10-26.94L250.02-24.75L224.02-22.36L224.02-22.36Q225.78-10.61 235.04-10.61zM235.04-42.85L235.04-42.85L235.04-42.85Q230.46-42.85 227.34-39.16L227.34-39.16L227.34-39.16Q224.22-35.46 223.70-29.74L223.70-29.74L241.38-31.93L241.38-31.93Q241.70-34.32 241.70-35.88L241.70-35.88L241.70-35.88Q241.70-42.85 235.04-42.85" fill="#009ef7" stroke="none" stroke-width="none" transform="translate(-260.2099914550781,29.575085169474278)" style="fill: rgb(0, 158, 247);"></path></g><g class="path" style="transform: scale(1); transform-origin: 20.59px 2.95008px; animation: 1.53846s linear -0.423077s infinite normal forwards running beat-cd35798a-13ad-4518-8568-b259d5373ef6;"><path d="M273.10 0L273.10 0Q266.97 0 263.07-3.90L263.07-3.90L263.07-3.90Q259.17-7.80 259.17-14.40L259.17-14.40L259.17-14.40Q259.17-21.01 265.20-25.84L265.20-25.84L265.20-25.84Q271.23-30.68 279.86-30.68L279.86-30.68L286.94-30.68L286.94-32.45L286.94-32.45Q286.94-37.54 284.86-39.42L284.86-39.42L284.86-39.42Q282.78-41.29 277.06-41.29L277.06-41.29L277.06-41.29Q274.66-41.29 271.39-40.30L271.39-40.30L271.39-40.30Q268.11-39.31 264.06-37.23L264.06-37.23L261.04-45.45L261.04-45.45Q265.51-48.57 271.91-51.06L271.91-51.06L271.91-51.06Q278.30-53.56 282.46-53.56L282.46-53.56L282.46-53.56Q298.79-53.56 298.79-37.75L298.79-37.75L298.79-17.37L298.79-17.37Q298.79-11.54 302.43-4.37L302.43-4.37L291.41 0.31L291.41 0.31Q288.81-4.68 287.56-8.63L287.56-8.63L287.56-8.63Q281.84 0 273.10 0L273.10 0zM277.47-10.61L277.47-10.61L277.47-10.61Q281.63-10.61 286.94-14.87L286.94-14.87L286.94-21.84L286.94-21.84Q281.42-23.09 277.99-23.09L277.99-23.09L277.99-23.09Q271.44-23.09 271.44-17.26L271.44-17.26L271.44-17.26Q271.44-14.25 273.10-12.43L273.10-12.43L273.10-12.43Q274.77-10.61 277.47-10.61" fill="#009ef7" stroke="none" stroke-width="none" transform="translate(-260.2099914550781,29.575085169474278)" style="fill: rgb(0, 158, 247);"></path></g><g class="path" style="transform: scale(1); transform-origin: 70.615px -10.1049px; animation: 1.53846s linear -0.338462s infinite normal forwards running beat-cd35798a-13ad-4518-8568-b259d5373ef6;"><path d="M338.94-10.19L338.94-10.19L338.94-10.19Q330.82 0 324.90 0L324.90 0L324.90 0Q317.51 0 312.78-6.03L312.78-6.03L312.78-6.03Q308.05-12.06 308.05-21.53L308.05-21.53L308.05-21.53Q308.05-34.53 315.28-43.47L315.28-43.47L315.28-43.47Q322.50-52.42 333.01-52.42L333.01-52.42L338.83-51.58L338.83-53.56L337.58-77.90L351.83-80.50L350.48-27.04L350.48-17.89L350.48-17.89Q350.48-11.65 353.60-3.54L353.60-3.54L342.37 1.14L342.37 1.14Q339.35-5.10 338.94-10.19zM319.70-26.94L319.70-26.94L319.70-26.94Q319.70-20.28 322.14-16.54L322.14-16.54L322.14-16.54Q324.58-12.79 329.21-12.79L329.21-12.79L329.21-12.79Q333.84-12.79 338.83-16.54L338.83-16.54L338.83-39L338.83-39Q332.59-40.25 329.58-40.25L329.58-40.25L329.58-40.25Q324.90-40.25 322.30-36.92L322.30-36.92L322.30-36.92Q319.70-33.59 319.70-26.94" fill="#009ef7" stroke="none" stroke-width="none" transform="translate(-260.2099914550781,29.575085169474278)" style="fill: rgb(0, 158, 247);"></path></g><g class="path" style="transform: scale(1); transform-origin: 127.97px -6.30492px; animation: 1.53846s linear -0.253846s infinite normal forwards running beat-cd35798a-13ad-4518-8568-b259d5373ef6;"><path d="M365.98-71.76L388.54-71.76L388.54-71.76Q398.53-71.76 404.46-66.09L404.46-66.09L404.46-66.09Q410.38-60.42 410.38-50.54L410.38-50.54L410.38-50.54Q410.38-40.66 402.90-33.64L402.90-33.64L402.90-33.64Q395.41-26.62 384.59-26.62L384.59-26.62L378.66-26.62L379.91 0L365.98 0L367.22-25.27L365.98-71.76zM384.80-61.26L384.80-61.26L379.70-61.26L378.98-36.71L386.05-36.71L386.05-36.71Q391.25-36.71 394.11-40.14L394.11-40.14L394.11-40.14Q396.97-43.58 396.97-49.92L396.97-49.92L396.97-49.92Q396.97-61.26 384.80-61.26" fill="#009ef7" stroke="none" stroke-width="none" transform="translate(-260.2099914550781,29.575085169474278)" style="fill: rgb(0, 158, 247);"></path></g><g class="path" style="transform: scale(1); transform-origin: 163.535px -10.6749px; animation: 1.53846s linear -0.169231s infinite normal forwards running beat-cd35798a-13ad-4518-8568-b259d5373ef6;"><path d="M416.62-77.90L430.87-80.50L429.52-27.04L430.66-2.60L416.62 0L417.87-25.27L416.62-77.90" fill="#009ef7" stroke="none" stroke-width="none" transform="translate(-260.2099914550781,29.575085169474278)" style="fill: rgb(0, 158, 247);"></path></g><g class="path" style="transform: scale(1); transform-origin: 204.255px 3.26009px; animation: 1.53846s linear -0.0846154s infinite normal forwards running beat-cd35798a-13ad-4518-8568-b259d5373ef6;"><path d="M455.42 0L455.42 0L455.42 0Q449.80 0 446.32-3.69L446.32-3.69L446.32-3.69Q442.83-7.38 442.83-13.42L442.83-13.42L443.46-25.38L442.31-50.34L456.25-52.94L454.90-21.32L454.90-21.32Q454.90-16.85 456.51-14.77L456.51-14.77L456.51-14.77Q458.12-12.69 461.66-12.69L461.66-12.69L461.66-12.69Q465.19-12.69 471.43-16.22L471.43-16.22L471.43-22.46L470.29-49.82L484.33-52.42L483.08-26.42L483.18-17.89L483.18-17.89Q483.18-11.23 486.62-4.47L486.62-4.47L475.80 0.31L475.80 0.31Q472.37-6.45 471.64-10.50L471.64-10.50L471.64-10.50Q462.28 0 455.42 0" fill="#009ef7" stroke="none" stroke-width="none" transform="translate(-260.2099914550781,29.575085169474278)" style="fill: rgb(0, 158, 247);"></path></g><g class="path" style="transform: scale(1); transform-origin: 249.495px 3.36508px; animation: 1.53846s linear 0s infinite normal forwards running beat-cd35798a-13ad-4518-8568-b259d5373ef6;"><path d="M511.68-9.67L511.68-9.67L511.68-9.67Q517.09-9.67 517.09-14.46L517.09-14.46L517.09-14.46Q517.09-16.12 514.75-17.58L514.75-17.58L514.75-17.58Q512.41-19.03 509.03-20.49L509.03-20.49L509.03-20.49Q505.65-21.94 502.27-23.76L502.27-23.76L502.27-23.76Q498.89-25.58 496.55-28.81L496.55-28.81L496.55-28.81Q494.21-32.03 494.21-36.19L494.21-36.19L494.21-36.19Q494.21-43.16 500.34-48.36L500.34-48.36L500.34-48.36Q506.48-53.56 514.49-53.56L514.49-53.56L514.49-53.56Q518.23-53.56 521.82-52.68L521.82-52.68L521.82-52.68Q525.41-51.79 528.74-49.92L528.74-49.92L521.77-37.23L521.77-37.23Q521.04-37.86 519.90-38.79L519.90-38.79L519.90-38.79Q518.75-39.73 515.58-41.24L515.58-41.24L515.58-41.24Q512.41-42.74 509.96-42.74L509.96-42.74L509.96-42.74Q507.52-42.74 506.22-41.65L506.22-41.65L506.22-41.65Q504.92-40.56 504.92-38.64L504.92-38.64L504.92-38.64Q504.92-36.71 508.51-34.79L508.51-34.79L508.51-34.79Q512.10-32.86 516.36-31.25L516.36-31.25L516.36-31.25Q520.62-29.64 524.21-25.95L524.21-25.95L524.21-25.95Q527.80-22.26 527.80-17.16L527.80-17.16L527.80-17.16Q527.80-9.88 521.82-4.37L521.82-4.37L521.82-4.37Q515.84 1.14 508.04 1.14L508.04 1.14L508.04 1.14Q503.05 1.14 498.73-1.04L498.73-1.04L498.73-1.04Q494.42-3.22 492.54-5.41L492.54-5.41L490.67-7.59L498.89-17.16L498.89-17.16Q499.51-16.33 500.66-15.08L500.66-15.08L500.66-15.08Q501.80-13.83 505.18-11.75L505.18-11.75L505.18-11.75Q508.56-9.67 511.68-9.67" fill="#009ef7" stroke="none" stroke-width="none" transform="translate(-260.2099914550781,29.575085169474278)" style="fill: rgb(0, 158, 247);"></path></g></g>
</g>
</g>
<style id="beat-cd35798a-13ad-4518-8568-b259d5373ef6" data-anikit="">@keyframes beat-cd35798a-13ad-4518-8568-b259d5373ef6
{
  0% {
    animation-timing-function: cubic-bezier(0.1028,0.2484,0.1372,0.849);
    transform: scale(1);
  }
  34% {
    animation-timing-function: cubic-bezier(0.7116,0.2095,0.8159,0.6876);
    transform: scale(1.2);
  }
  68% {
    animation-timing-function: cubic-bezier(0.1475,0.2888,0.294,0.883);
    transform: scale(1.0268);
  }
  84% {
    animation-timing-function: cubic-bezier(0.8176,0.2193,0.867,0.6889);
    transform: scale(1.0932);
  }
  100% {
    transform: scale(1);
  }
}</style></svg>